{
  "accessors": [
    {
      "bufferView": 2,
      "componentType": 5126,
      "count": 65532,
      "max": [
        1.5485420227050781,
        -5.579514026641846,
        1.1101609468460083
      ],
      "min": [
        -1.8295010328292847,
        -7.225177764892578,
        -1.1178489923477173
      ],
      "type": "VEC3"
    },
    {
      "bufferView": 2,
      "byteOffset": 786384,
      "componentType": 5126,
      "count": 65532,
      "max": [
        0.9999921917915344,
        0.9999952912330627,
        0.9999754428863525
      ],
      "min": [
        -0.99971604347229,
        -0.9999678730964661,
        -0.9999161958694458
      ],
      "type": "VEC3"
    },
    {
      "bufferView": 1,
      "componentType": 5126,
      "count": 65532,
      "max": [
        0.9953399896621704,
        0.9959740042686462
      ],
      "min": [
        0.0035000001080334187,
        0.002764000091701746
      ],
      "type": "VEC2"
    },
    {
      "bufferView": 0,
      "componentType": 5125,
      "count": 358386,
      "type": "SCALAR"
    },
    {
      "bufferView": 2,
      "byteOffset": 1572768,
      "componentType": 5126,
      "count": 39250,
      "max": [
        1.4865620136260986,
        -6.036076068878174,
        1.1101609468460083
      ],
      "min": [
        -1.8295010328292847,
        -7.225491046905518,
        -1.1178489923477173
      ],
      "type": "VEC3"
    },
    {
      "bufferView": 2,
      "byteOffset": 2043768,
      "componentType": 5126,
      "count": 39250,
      "max": [
        0.9981192350387573,
        0.9999843239784241,
        0.9999754428863525
      ],
      "min": [
        -0.9998537302017212,
        -0.9999990463256836,
        -0.9999940991401672
      ],
      "type": "VEC3"
    },
    {
      "bufferView": 1,
      "byteOffset": 524256,
      "componentType": 5126,
      "count": 39250,
      "max": [
        0.9963719844818115,
        0.9988920092582703
      ],
      "min": [
        0.003476999932900071,
        0.03339499980211258
      ],
      "type": "VEC2"
    },
    {
      "bufferView": 0,
      "byteOffset": 1433544,
      "componentType": 5125,
      "count": 181020,
      "type": "SCALAR"
    }
  ],
  "asset": {
    "extras": {
      "author": "The British Museum (https://sketchfab.com/britishmuseum)",
      "license": "CC-BY-NC-SA-4.0 (http://creativecommons.org/licenses/by-nc-sa/4.0/)",
      "source": "https://sketchfab.com/3d-models/head-of-a-19th-dynasty-pharoah-245cec225bc140879671735c9d12f095",
      "title": "Head of a 19th Dynasty Pharoah"
    },
    "generator": "Sketchfab-12.64.0",
    "version": "2.0"
  },
  "bufferViews": [
    {
      "buffer": 0,
      "byteLength": 2157624,
      "name": "floatBufferViews",
      "target": 34963
    },
    {
      "buffer": 0,
      "byteLength": 838256,
      "byteOffset": 2157624,
      "byteStride": 8,
      "name": "floatBufferViews",
      "target": 34962
    },
    {
      "buffer": 0,
      "byteLength": 2514768,
      "byteOffset": 2995880,
      "byteStride": 12,
      "name": "floatBufferViews",
      "target": 34962
    }
  ],
  "buffers": [
    {
      "byteLength": 5510648,
      "uri": "scene.bin"
    }
  ],
  "images": [
    {
      "uri": "textures/material_0_baseColor.jpeg"
    }
  ],
  "materials": [
    {
      "doubleSided": true,
      "name": "material_0",
      "pbrMetallicRoughness": {
        "baseColorTexture": {
          "index": 0
        },
        "metallicFactor": 0.0,
        "roughnessFactor": 0.6
      }
    }
  ],
  "meshes": [
    {
      "name": "Object_0",
      "primitives": [
        {
          "attributes": {
            "NORMAL": 1,
            "POSITION": 0,
            "TEXCOORD_0": 2
          },
          "indices": 3,
          "material": 0,
          "mode": 4
        }
      ]
    },
    {
      "name": "Object_1",
      "primitives": [
        {
          "attributes": {
            "NORMAL": 5,
            "POSITION": 4,
            "TEXCOORD_0": 6
          },
          "indices": 7,
          "material": 0,
          "mode": 4
        }
      ]
    }
  ],
  "nodes": [
    {
      "children": [
        1
      ],
      "matrix": [
        -0.03940345346927643,
        -0.9989544749259949,
        -0.02317990176379703,
        0.0,
        0.5070428848266602,
        8.036256850810697e-17,
        -0.8619208335876465,
        0.0,
        0.8610196709632874,
        -0.04571586102247249,
        0.5065127611160278,
        0.0,
        2.863753318786621,
        -0.1723172515630724,
        0.8246917724609375,
        1.0
      ],
      "name": "Sketchfab_model"
    },
    {
      "children": [
        2,
        3
      ],
      "name": "rameses.obj.cleaner.gles"
    },
    {
      "mesh": 0,
      "name": "Object_2"
    },
    {
      "mesh": 1,
      "name": "Object_3"
    }
  ],
  "samplers": [
    {
      "magFilter": 9729,
      "minFilter": 9987,
      "wrapS": 10497,
      "wrapT": 10497
    }
  ],
  "scene": 0,
  "scenes": [
    {
      "name": "Sketchfab_Scene",
      "nodes": [
        0
      ]
    }
  ],
  "textures": [
    {
      "sampler": 0,
      "source": 0
    }
  ]
}
